{"title":"The.Longest.Ride.2015.720p.BluRay.H264.AAC-RARBG","uid":12080568,"size":1707967466,"categoryP":"video","categoryS":"hd___movies","magnet":"?xt=urn:btih:772041a2d9b8b258b48ea377a09f63a5dd60d7e6&amp;dn=The.Longest.Ride.2015.720p.BluRay.H264.AAC-RARBG&amp;tr=udp%3A%2F%2Ftracker.openbittorrent.com%3A80&amp;tr=udp%3A%2F%2Fopen.demonii.com%3A1337&amp;tr=udp%3A%2F%2Ftracker.coppersurfer.tk%3A6969&amp;tr=udp%3A%2F%2Fexodus.desync.com%3A6969","seeders":0,"leechers":1,"uploader":"vickey1992","files":6,"time":1435751995,"description":"Video\nID                                       : 1\nFormat                                   : AVC\nFormat/Info                              : Advanced Video Codec\nFormat profile                           : &lt;a class=&quot;__cf_email__&quot; href=&quot;/cdn-cgi/l/email-protection&quot; data-cfemail=&quot;246c4d434c6468100a15&quot;&gt;[email&amp;#160;protected]&lt;/a&gt;&lt;script data-cfhash='f9e31' type=&quot;text/javascript&quot;&gt;\n/* &lt;![CDATA[ */!function(){try{var t=&quot;currentScript&quot;in document?document.currentScript:function(){for(var t=document.getElementsByTagName(&quot;script&quot;),e=t.length;e--;)if(t[e].getAttribute(&quot;data-cfhash&quot;))return t[e]}();if(t&amp;&amp;t.previousSibling){var e,r,n,i,c=t.previousSibling,a=c.getAttribute(&quot;data-cfemail&quot;);if(a){for(e=&quot;&quot;,r=parseInt(a.substr(0,2),16),n=2;a.length-n;n+=2)i=parseInt(a.substr(n,2),16)^r,e+=String.fromCharCode(i);e=document.createTextNode(e),c.parentNode.replaceChild(e,c)}t.parentNode.removeChild(t);}}catch(u){}}()/* ]]&gt; */&lt;/script&gt;\nFormat settings, CABAC                   : Yes\nFormat settings, ReFrames                : 4 frames\nCodec ID                                 : avc1\nCodec ID/Info                            : Advanced Video Coding\nDuration                                 : 2h 8mn\nBit rate                                 : 1 500 Kbps\nWidth                                    : 1 280 pixels\nHeight                                   : 536 pixels\nDisplay aspect ratio                     : 2.40:1\nFrame rate mode                          : Constant\nFrame rate                               : 23.976 fps\nColor space                              : YUV\nChroma subsampling                       : 4:2:0\nBit depth                                : 8 bits\nScan type                                : Progressive\nBits/(Pixel*Frame)                       : 0.091\nStream size                              : 1.34 GiB (87%)\nWriting library                          : x264 core 144 r2525M 40bb568\nEncoding settings                        : cabac=1 / ref=4 / deblock=1:-1:-1 / analyse=0x3:0x113 / me=umh / subme=9 / psy=1 / psy_rd=1.00:0.15 / mixed_ref=1 / me_range=24 / chroma_me=1 / trellis=2 / 8x8dct=1 / cqm=0 / deadzone=21,11 / fast_pskip=1 / chroma_qp_offset=-3 / threads=32 / lookahead_threads=4 / sliced_threads=0 / nr=0 / decimate=1 / interlaced=0 / bluray_compat=0 / constrained_intra=0 / bframes=3 / b_pyramid=2 / b_adapt=1 / b_bias=0 / direct=1 / weightb=1 / open_gop=0 / weightp=2 / keyint=250 / keyint_min=25 / scenecut=40 / intra_refresh=0 / rc_lookahead=50 / rc=2pass / mbtree=1 / bitrate=1500 / ratetol=1.0 / qcomp=0.60 / qpmin=0 / qpmax=69 / qpstep=4 / cplxblur=20.0 / qblur=0.5 / vbv_maxrate=31250 / vbv_bufsize=31250 / nal_hrd=none / filler=0 / ip_ratio=1.40 / aq=3:1.00\nEncoded date                             : UTC 1904-01-01 00:00:00\nTagged date                              : UTC 1904-01-01 00:00:00\n\nAudio\nID                                       : 2\nFormat                                   : AAC\nFormat/Info                              : Advanced Audio Codec\nFormat profile                           : LC\nCodec ID                                 : 40\nDuration                                 : 2h 8mn\nBit rate mode                            : Constant\nBit rate                                 : 224 Kbps\nChannel(s)                               : 2 channels\nChannel(s)_Original                      : 6 channels\nChannel positions                        : Front: L C R, Side: L R, LFE\nSampling rate                            : 48.0 KHz\nCompression mode                         : Lossy\nStream size                              : 206 MiB (13%)\nLanguage                                 : English\nEncoded date                             : UTC 1904-01-01 00:00:00\nTagged date                              : UTC 1904-01-01 00:00:00\n\nMenu #1\nID                                       : 3\nCodec ID                                 : text\nDuration                                 : 2h 8mn\nLanguage                                 : English\nEncoded date                             : UTC 1904-01-01 00:00:00\nTagged date                              : UTC 1904-01-01 00:00:00\nBit rate mode                            : CBR\n00:00:00.000                             : 00:00:00.000\n00:02:13.176                             : 00:02:13.133\n00:07:16.354                             : 00:07:16.311\n00:10:36.345                             : 00:10:36.302\n00:12:44.348                             : 00:12:44.305\n00:15:41.442                             : 00:15:41.399\n00:20:09.585                             : 00:20:09.542\n00:23:00.589                             : 00:23:00.546\n00:26:04.397                             : 00:26:04.354\n00:29:10.041                             : 00:29:09.998\n00:33:01.731                             : 00:33:01.688\n00:37:16.277                             : 00:37:16.234\n00:44:09.148                             : 00:44:09.105\n00:48:59.521                             : 00:48:59.478\n00:53:24.077                             : 00:53:24.034\n00:57:33.159                             : 00:57:33.116\n01:01:40.865                             : 01:01:40.822\n01:05:01.566                             : 01:05:01.523\n01:09:36.549                             : 01:09:36.506\n01:11:59.692                             : 01:11:59.649\n01:16:16.031                             : 01:16:15.988\n01:20:55.060                             : 01:20:55.017\n01:25:01.931                             : 01:25:01.888\n01:29:15.184                             : 01:29:15.141\n01:32:49.440                             : 01:32:49.397\n01:37:15.664                             : 01:37:15.621\n01:39:56.659                             : 01:39:56.616\n01:42:07.956                             : 01:42:07.913\n01:45:21.108                             : 01:45:21.065\n01:52:07.430                             : 01:52:07.387\n01:57:40.888                             : 01:57:40.845\n02:02:00.356                             : 02:02:00.313\n\nMenu #2\n00:00:00.043                             : 00:00:00.000\n00:02:13.176                             : 00:02:13.133\n00:07:16.354                             : 00:07:16.311\n00:10:36.345                             : 00:10:36.302\n00:12:44.348                             : 00:12:44.305\n00:15:41.442                             : 00:15:41.399\n00:20:09.585                             : 00:20:09.542\n00:23:00.589                             : 00:23:00.546\n00:26:04.397                             : 00:26:04.354\n00:29:10.041                             : 00:29:09.998\n00:33:01.731                             : 00:33:01.688\n00:37:16.277                             : 00:37:16.234\n00:44:09.148                             : 00:44:09.105\n00:48:59.521                             : 00:48:59.478\n00:53:24.077                             : 00:53:24.034\n00:57:33.159                             : 00:57:33.116\n01:01:40.865                             : 01:01:40.822\n01:05:01.566                             : 01:05:01.523\n01:09:36.549                             : 01:09:36.506\n01:11:59.692                             : 01:11:59.649\n01:16:16.031                             : 01:16:15.988\n01:20:55.060                             : 01:20:55.017\n01:25:01.931                             : 01:25:01.888\n01:29:15.184                             : 01:29:15.141\n01:32:49.440                             : 01:32:49.397\n01:37:15.664                             : 01:37:15.621\n01:39:56.659                             : 01:39:56.616\n01:42:07.956                             : 01:42:07.913\n01:45:21.108                             : 01:45:21.065\n01:52:07.430                             : 01:52:07.387\n01:57:40.888                             : 01:57:40.845\n02:02:00.356                             : 02:02:00.313","torrent":{"xt":"urn:btih:772041a2d9b8b258b48ea377a09f63a5dd60d7e6","amp;dn":"The.Longest.Ride.2015.720p.BluRay.H264.AAC-RARBG","amp;tr":["udp%3A%2F%2Ftracker.openbittorrent.com%3A80","udp%3A%2F%2Fopen.demonii.com%3A1337","udp%3A%2F%2Ftracker.coppersurfer.tk%3A6969","udp%3A%2F%2Fexodus.desync.com%3A6969"],"infoHash":"772041a2d9b8b258b48ea377a09f63a5dd60d7e6","infoHashBuffer":{"type":"Buffer","data":[119,32,65,162,217,184,178,88,180,142,163,119,160,159,99,165,221,96,215,230]},"announce":[],"urlList":[]}}